<?xml version="1.0" encoding="utf-8"?>
<!-- Generator: Adobe Illustrator 19.2.1, SVG Export Plug-In . SVG Version: 6.00 Build 0)  -->
<!DOCTYPE svg PUBLIC "-//W3C//DTD SVG 1.1//EN" "http://www.w3.org/Graphics/SVG/1.1/DTD/svg11.dtd">
<svg version="1.1" id="Layer_1" xmlns="http://www.w3.org/2000/svg" xmlns:xlink="http://www.w3.org/1999/xlink" x="0px" y="0px"
	 viewBox="37 -38 298 148" style="enable-background:new 37 -38 298 148;" xml:space="preserve">
<style type="text/css">
	.st0{fill:#191919;}
	.st1{fill:#FFFFFF;}
	.st2{fill:#ECF0F1;}
	.st3{fill:#34495E;}
	.st4{fill:#F1C40F;}
	.st5{fill:#3498D8;}
	.st6{fill:#E74C3C;}
	.st7{fill:#DD0228;}
	.st8{fill:#024381;}
	.st9{fill:#01798A;}
	.st10{fill:#000066;}
	.st11{fill:#CC0000;}
	.st12{fill:#DE2910;}
	.st13{fill:#FFDE00;}
	.st14{fill:#C5A5DC;}
	.st15{fill:#333333;}
</style>
<polygon class="st0" points="51.1,-2.7 43.3,5.1 40.9,2.6 39.1,4.4 41.6,6.9 43.3,8.7 45.1,6.9 52.9,-0.9 "/>
<polygon class="st1" points="87.8,-8.3 84.7,-11.5 72.2,1 84.7,13.5 87.8,10.3 78.5,1 "/>
<polygon class="st1" points="122.2,-8.3 125.3,-11.5 137.8,1 125.3,13.5 122.2,10.3 131.5,1 "/>
<g>
	<g id="E-Com">
		<g id="Visa_6_">
			<g id="Visa">
				<g>
					<path class="st2" d="M201-23h-42c-1.6,0-3,1.3-3,3V5.5c0,1.7,1.4,3,3,3h42c1.6,0,3-1.3,3-3V-20C204-21.7,202.6-23,201-23z"/>
				</g>
			</g>
			<g id="Visa_1_">
				<g>
					<path class="st3" d="M201-23h-42c-1.6,0-3,1.3-3,3v3h48v-3C204-21.7,202.6-23,201-23z"/>
				</g>
			</g>
			<g id="Visa_2_">
				<g>
					<path class="st4" d="M156,2.5v3c0,1.7,1.4,3,3,3h42c1.6,0,3-1.3,3-3v-3H156z"/>
				</g>
			</g>
			<g id="Visa_3_">
				<g>
					<path class="st3" d="M183.8-8.4c-1.1-0.6-1.6-0.9-1.6-1.5c0-0.4,0.6-1.1,1.6-1.1c0.9,0,1.6,0.2,2.3,0.4l0.3,0.2l0.4-2.6
						c-0.6-0.3-1.5-0.4-2.6-0.4c-2.8,0-4.9,1.6-4.9,3.9c0,1.7,1.5,2.6,2.6,3.2c1.2,0.6,1.5,0.9,1.5,1.5c0,0.8-0.9,1.2-1.8,1.2
						c-1.2,0-1.8-0.2-2.7-0.6l-0.4-0.2l-0.4,2.6c0.8,0.3,1.9,0.6,3.3,0.6c3,0,5.1-1.5,5.1-3.9C186.3-6.7,185.6-7.7,183.8-8.4z
						 M194.1-13.1h-2.3c-0.8,0-1.2,0.2-1.5,0.9L186-1.6h3c0,0,0.4-1.5,0.6-1.8c0.3,0,3.3,0,3.8,0c0.1,0.4,0.3,1.8,0.3,1.8h2.9
						L194.1-13.1z M190.5-5.6c0.3-0.6,1.2-3.3,1.2-3.3s0.3-0.6,0.4-1.1l0.2,1.1c0,0,0.6,2.7,0.6,3.3H190.5z M173.3-1.6h2.9l1.8-11.6
						h-2.8L173.3-1.6z M170.7-13.1l-2.8,8l-0.3-1.7c-0.6-1.8-2.3-3.9-4.1-4.9l2.6,10.2h3.1l4.7-11.6L170.7-13.1z"/>
				</g>
			</g>
			<g id="Visa_4_">
				<g>
					<path class="st4" d="M166.5-12.2c-0.1-0.8-0.8-0.9-1.4-1.1h-4.6v0.3c3.6,0.9,6.1,3.3,7.1,6.2L166.5-12.2z"/>
				</g>
			</g>
		</g>
	</g>
</g>
<g id="E-Com_1_">
	<g id="Amex_1_">
		<g id="Amex">
			<g>
				<path class="st5" d="M201,10.5h-42c-1.6,0-3,1.3-3,3V39c0,1.7,1.4,3,3,3h42c1.6,0,3-1.3,3-3V13.5C204,11.8,202.6,10.5,201,10.5z
					"/>
			</g>
		</g>
		<g id="Amex_2_">
			<g>
				<path class="st1" d="M166.1,26.7h2.4l-1.2-3L166.1,26.7z M199.5,21h-6.1l-1.5,1.6l-1.4-1.6h-13.1l-1.2,2.7l-1.2-2.7h-5.3v1.2
					l-0.6-1.2h-4.5l-4.3,10.5h5.3l0.6-1.7h1.5l0.6,1.7h5.8v-1.2l0.5,1.2h3l0.4-1.4v1.4h12l1.5-1.7l1.3,1.7h6.1l-3.9-5.3L199.5,21z
					 M181.4,30h-1.7v-5.9l-2.6,5.9h-1.5l-2.6-5.9V30h-3.4l-0.6-1.7h-3.6l-0.6,1.7h-2l3.2-7.5h2.6l2.8,7.1v-7.1h2.9l2.3,5.1l2.1-5.1
					h2.9V30H181.4z M196.2,30h-2.3l-1.9-2.6l-2.3,2.6H183v-7.5h6.9l2.1,2.4l2.3-2.4h2.1l-3.3,3.8L196.2,30z M184.6,24v1.3h3.8v1.5
					h-3.8v1.5h4.2l1.9-2.3L189,24H184.6z"/>
			</g>
		</g>
	</g>
</g>
<g id="Mastercard_2_">
	<g id="Mastercard">
		<g>
			<path class="st3" d="M201,44h-42c-1.6,0-3,1.3-3,3v25.5c0,1.6,1.4,3,3,3h42c1.6,0,3-1.4,3-3V47C204,45.3,202.6,44,201,44z"/>
		</g>
	</g>
	<g id="Mastercard_6_">
		<g>
			<circle class="st6" cx="174" cy="59.7" r="10.5"/>
		</g>
	</g>
	<g id="Mastercard_4_">
		<g>
			<circle class="st4" cx="186" cy="59.7" r="10.5"/>
		</g>
	</g>
	<g id="Mastercard_3_">
		<g>
			<path class="st6" d="M182.7,54.5h-8.4c-0.3,0.5-0.6,0.9-0.9,1.5h10.2C183.3,55.4,183,54.9,182.7,54.5z M180.3,51.5h-3.4
				c-0.4,0.5-0.9,0.9-1.4,1.5h6.3C181.2,52.4,180.6,51.9,180.3,51.5z M184.2,57.5h-11.3c-0.1,0.5-0.3,1.1-0.3,1.5h11.9
				C184.4,58.5,184.4,57.9,184.2,57.5z M174.3,65h8.4c0.3-0.5,0.6-0.9,0.9-1.5h-10.2C173.7,64.1,174,64.5,174.3,65z M172.8,62h11.3
				c0.1-0.4,0.3-1,0.3-1.5h-11.9C172.6,60.9,172.6,61.5,172.8,62z M176.7,68h3.4c0.4-0.5,0.9-0.9,1.4-1.5h-6.3
				C175.8,67.1,176.4,67.5,176.7,68z"/>
		</g>
	</g>
</g>
<g>
	<g>
		<path class="st7" d="M173.8,105.8l5.9-25.1c0.4-1.8-0.7-3.2-2.4-3.2h-10.9h-1.7H159c-1.7,0-3,1.3-3,3V106c0,1.6,1.3,3,3,3h10.9
			C171.7,109,173.4,107.6,173.8,105.8z"/>
		<path class="st8" d="M190.7,77.5h-0.6h-12.8h-1c-1.8,0-3.5,1.4-3.9,3.2l-5.9,25.1c-0.4,1.8,0.7,3.2,2.4,3.2h1h12.8h0.6
			c1.8,0,1.6-1.4,2-3.2l5.9-25.1C191.6,78.9,192.4,77.5,190.7,77.5z"/>
		<path class="st9" d="M204,106V80.5c0-1.7-1.3-3-3-3h-8.9h-2c-1.8,0-3.5,1.4-3.9,3.2l-5.9,25.1c-0.4,1.8,0.7,3.2,2.4,3.2h9.4h3.2
			h5.7C202.7,109,204,107.6,204,106z"/>
	</g>
	<g>
		<path class="st1" d="M191,101.1h-0.4l1.5-5.1h0.5l0.2-0.5l0,0.6c0,0.4,0.3,0.7,1,0.6h0.9l0.3-1h-0.3c-0.2,0-0.3,0-0.3-0.1l0-0.6
			h-1.6l0,0c-0.5,0-2,0-2.4,0.1c-0.4,0.1-0.8,0.4-0.8,0.4l0.2-0.5h-1.5l-0.3,1l-1.6,5.1h-0.3l-0.3,1h3l-0.1,0.3h1.5l0.1-0.3h0.4
			L191,101.1z M189.2,101.1H188l0.3-1.1h1.2L189.2,101.1z M189.8,98.9c0,0-0.4,0-0.6,0.1c-0.2,0.1-0.7,0.3-0.7,0.3l0.4-1.3h1.2
			L189.8,98.9z M189.8,97.1c-0.2,0.1-0.7,0.3-0.7,0.3l0.4-1.3h1.2l-0.3,0.9C190.4,97,190.1,97,189.8,97.1z"/>
		<path class="st1" d="M192,98h1.7l-0.2,0.8h-1.7l-0.3,0.9h1.5l-1.1,1.6c-0.1,0.1-0.2,0.2-0.2,0.2c-0.1,0-0.2,0.1-0.3,0.1h-0.4
			l-0.3,1h1.1c0.6,0,0.9-0.3,1.2-0.6l0.8-1.1l0.2,1.1c0,0.2,0.2,0.3,0.3,0.4c0.1,0.1,0.2,0.1,0.4,0.2c0.2,0,0.3,0,0.4,0h0.5l0.3-1.1
			h-0.2c-0.1,0-0.3,0-0.4-0.1c0,0,0-0.1-0.1-0.2l-0.2-1.1h-0.7l0.3-0.4h1.7l0.3-0.9h-1.6l0.2-0.8h1.6l0.3-1h-4.8L192,98z"/>
		<path class="st1" d="M177.6,101.4l0.4-1.3h1.6l0.3-1h-1.6l0.3-0.8h1.6l0.3-1h-4l-0.3,1h0.9l-0.2,0.8h-0.9l-0.3,1h0.9l-0.5,1.8
			c-0.1,0.2,0,0.3,0.1,0.4c0.1,0.1,0.1,0.2,0.3,0.2c0.2,0,0.3,0.1,0.4,0.1h1.8l0.3-1.1l-0.8,0.1C178,101.5,177.6,101.5,177.6,101.4z
			"/>
		<path class="st1" d="M177.8,95l-0.4,0.8c-0.1,0.2-0.2,0.3-0.2,0.3c-0.1,0-0.2,0.1-0.4,0.1h-0.2l-0.3,1h0.7c0.3,0,0.6-0.1,0.7-0.2
			c0.1-0.1,0.2,0,0.3-0.1l0.2-0.2h2.2l0.3-1h-1.6l0.3-0.5H177.8z"/>
		<path class="st1" d="M181.1,101.4c0-0.1,0-0.2,0-0.4l0.6-2h2.2c0.3,0,0.5,0,0.7,0c0.2,0,0.3-0.1,0.5-0.2c0.2-0.1,0.3-0.2,0.4-0.4
			c0.1-0.1,0.2-0.4,0.4-0.9l0.8-2.6l-2.3,0c0,0-0.7,0.1-1,0.2c-0.3,0.1-0.8,0.5-0.8,0.5l0.2-0.7h-1.4l-2,6.5
			c-0.1,0.3-0.1,0.4-0.1,0.5c0,0.1,0.1,0.2,0.2,0.3c0.1,0.1,0.3,0.1,0.5,0.1c0.2,0,0.4,0,0.8,0h1.1l0.3-1.1l-1,0.1
			C181.2,101.5,181.1,101.4,181.1,101.4z M182.6,96.1h2.3l-0.2,0.6c0,0-1.1,0-1.3,0c-0.8,0.1-1.2,0.5-1.2,0.5L182.6,96.1z
			 M182.2,97.6h2.3l-0.1,0.5c0,0-0.1,0-0.3,0h-2L182.2,97.6z"/>
		<path class="st1" d="M184.4,99.6c0,0.1,0,0.1-0.1,0.1c0,0-0.1,0-0.2,0h-0.3l0-0.6h-1.4l-0.1,2.7c0,0.2,0,0.3,0.2,0.4
			c0.1,0.1,0.6,0.1,1.2,0.1h0.9l0.3-1l-0.7,0l-0.2,0c0,0-0.1,0-0.1-0.1c0,0-0.1,0-0.1-0.2l0-0.7l0.8,0c0.4,0,0.6-0.1,0.8-0.3
			c0.1-0.1,0.2-0.3,0.2-0.5l0.1-0.6h-1.1L184.4,99.6z"/>
		<path class="st1" d="M168,85.6c-1.3,0-1.7,0-1.8,0c0,0.2-0.9,4.2-0.9,4.2c-0.2,0.8-0.3,1.4-0.8,1.8c-0.3,0.2-0.6,0.3-0.9,0.3
			c-0.6,0-0.9-0.3-1-0.8l0-0.2c0,0,0.2-1.1,0.2-1.1c0,0,0.9-3.7,1.1-4.2c0,0,0,0,0-0.1c-1.8,0-2.1,0-2.1,0c0,0-0.1,0.3-0.1,0.3
			l-0.9,4.1l-0.1,0.4l-0.2,1.1c0,0.3,0.1,0.6,0.2,0.9c0.4,0.7,1.6,0.9,2.3,0.9c0.9,0,1.7-0.2,2.3-0.5c1-0.6,1.2-1.5,1.5-2.3l0.1-0.4
			C166.8,89.9,167.8,86.1,168,85.6C168,85.6,168,85.6,168,85.6z"/>
		<path class="st1" d="M171.2,88.6c-0.2,0-0.6,0.1-1,0.2c-0.1,0.1-0.3,0.1-0.4,0.2l0.1-0.4l-0.1-0.1c-0.8,0.2-1,0.2-1.7,0.3l-0.1,0
			c-0.1,0.7-0.2,1.2-0.5,2.6c-0.1,0.5-0.2,1-0.4,1.5l0,0.1c0.7,0,1,0,1.6,0l0.1-0.1c0.1-0.4,0.1-0.5,0.3-1.4
			c0.1-0.4,0.3-1.3,0.4-1.6c0.2-0.1,0.3-0.1,0.5-0.1c0.4,0,0.3,0.3,0.3,0.4c0,0.2-0.1,0.9-0.3,1.5l-0.1,0.4
			c-0.1,0.3-0.1,0.6-0.2,0.8l0,0.1c0.7,0,1,0,1.6,0l0.1-0.1c0.1-0.7,0.1-0.8,0.3-1.8l0.1-0.4c0.2-0.9,0.3-1.3,0.1-1.7
			C171.9,88.7,171.5,88.6,171.2,88.6z"/>
		<path class="st1" d="M174.8,89.5c-0.4,0.1-0.6,0.1-0.9,0.2c-0.2,0-0.5,0.1-0.9,0.1l0,0l0,0c0,0.3-0.1,0.5-0.1,0.8
			c0,0.3-0.1,0.6-0.2,1.1c-0.1,0.4-0.1,0.5-0.2,0.6c0,0.1-0.1,0.3-0.2,0.6l0,0l0,0c0.4,0,0.6,0,0.8,0c0.2,0,0.5,0,0.9,0l0,0l0,0
			c0.1-0.3,0.1-0.4,0.1-0.6c0-0.2,0.1-0.4,0.2-1c0.1-0.3,0.1-0.6,0.2-0.9C174.6,90.2,174.7,89.9,174.8,89.5L174.8,89.5L174.8,89.5z"
			/>
		<path class="st1" d="M176.9,93.2c0.7,0,1.5-0.2,2-0.8c0.4-0.5,0.6-1.2,0.7-1.5c0.2-1,0-1.4-0.2-1.7c-0.3-0.4-0.9-0.6-1.5-0.6
			c-0.4,0-1.2,0-1.9,0.7c-0.5,0.4-0.7,1.1-0.8,1.6c-0.1,0.6-0.3,1.7,0.7,2.1C176.2,93.1,176.6,93.2,176.9,93.2z M176.9,91
			c0.2-0.7,0.4-1.4,0.9-1.4c0.4,0,0.4,0.5,0.2,1.2c0,0.2-0.2,0.8-0.4,1c-0.1,0.2-0.3,0.3-0.5,0.3c-0.1,0-0.4,0-0.4-0.5
			C176.8,91.5,176.8,91.3,176.9,91z"/>
		<path class="st1" d="M191,91c-0.1,0.6-0.3,1.7,0.7,2c0.3,0.1,0.6,0.2,0.9,0.2c0.3,0,0.6-0.2,0.8-0.4c0,0.1,0,0.2-0.1,0.3l0,0.1
			c0.7,0,0.9,0,1.7,0l0.1-0.1c0.1-0.7,0.2-1.3,0.5-2.5c0.1-0.6,0.3-1.2,0.4-1.8l0-0.1c-0.8,0.1-1,0.2-1.8,0.3l-0.1,0
			c0,0.1,0,0.1,0,0.2c-0.1-0.2-0.3-0.4-0.6-0.5c-0.3-0.1-1.1,0-1.8,0.7C191.4,89.8,191.2,90.5,191,91z M192.7,91.1
			c0.2-0.7,0.4-1.3,0.9-1.3c0.3,0,0.5,0.3,0.4,0.8c0,0.1,0,0.2-0.1,0.4c-0.1,0.2-0.1,0.4-0.2,0.7c-0.1,0.1-0.1,0.3-0.2,0.4
			c-0.1,0.2-0.4,0.3-0.6,0.3c-0.1,0-0.4,0-0.4-0.5C192.6,91.6,192.6,91.3,192.7,91.1z"/>
		<path class="st1" d="M181.4,93.1L181.4,93.1c0.1-0.5,0.1-0.6,0.3-1.4c0.1-0.4,0.3-1.3,0.4-1.6c0.2-0.1,0.3-0.1,0.5-0.1
			c0.4,0,0.3,0.3,0.3,0.4c0,0.2-0.1,0.9-0.3,1.5l-0.1,0.4c-0.1,0.3-0.1,0.6-0.2,0.8l0,0.1c0.7,0,1,0,1.6,0L184,93
			c0.1-0.7,0.1-0.8,0.3-1.8l0.1-0.4c0.2-0.9,0.3-1.3,0.2-1.7c-0.2-0.4-0.5-0.5-0.9-0.5c-0.2,0-0.6,0.1-1,0.2
			c-0.1,0.1-0.3,0.1-0.4,0.2l0.1-0.4l-0.1-0.1c-0.8,0.2-1,0.2-1.7,0.3l-0.1,0c-0.1,0.7-0.2,1.2-0.5,2.6c-0.1,0.5-0.2,1-0.4,1.5
			l0,0.1C180.6,93.1,180.8,93.1,181.4,93.1z"/>
		<path class="st1" d="M186.9,93.1c0-0.2,0.3-1.6,0.3-1.6c0,0,0.2-1,0.3-1c0,0,0.1-0.1,0.1-0.1h0.1c1,0,2.2,0,3.1-0.7
			c0.6-0.5,1-1.1,1.2-2c0-0.2,0.1-0.4,0.1-0.7c0-0.3-0.1-0.6-0.2-0.9c-0.5-0.6-1.4-0.7-2.5-0.7c0,0-0.5,0-0.5,0c-1.4,0-1.9,0-2.1,0
			c0,0.1-0.1,0.3-0.1,0.3s-0.5,2.3-0.5,2.3c0,0-1.2,4.8-1.2,5.1C186.2,93.1,186.7,93.1,186.9,93.1z M187.8,89.1c0,0,0.5-2.3,0.5-2.3
			l0-0.1l0-0.1l0.2,0c0,0,1.1,0.1,1.1,0.1c0.4,0.2,0.6,0.6,0.5,1.1c-0.1,0.5-0.4,0.9-0.9,1.1c-0.3,0.2-0.8,0.2-1.2,0.2h-0.3
			L187.8,89.1z"/>
		<path class="st1" d="M201.3,88.7L201.3,88.7c-0.8,0.1-1,0.1-1.7,0.2l-0.1,0.1c0,0,0,0,0,0l0,0c-0.5,1.2-0.5,1-1,1.9
			c0,0,0-0.1,0-0.1l-0.1-2.1l-0.1-0.1c-0.8,0.2-0.8,0.2-1.6,0.3l-0.1,0.1c0,0,0,0.1,0,0.1l0,0c0.1,0.5,0.1,0.4,0.2,1.1
			c0,0.4,0.1,0.7,0.1,1.1c0.1,0.6,0.1,0.9,0.2,1.9c-0.5,0.8-0.6,1.2-1.1,1.9l0,0l-0.3,0.5c0,0.1-0.1,0.1-0.1,0.1c-0.1,0-0.1,0-0.2,0
			h-0.2l-0.3,0.9l1,0c0.6,0,0.9-0.3,1.1-0.6l0.6-1.1h0l0.1-0.1C198.2,94.1,201.3,88.7,201.3,88.7z"/>
		<path class="st1" d="M174.8,88.3c-0.4-0.2-1-0.1-1.4,0.1c-0.4,0.3-0.5,0.7-0.1,0.9c0.4,0.2,1,0.1,1.4-0.1
			C175.1,88.9,175.1,88.5,174.8,88.3z"/>
	</g>
</g>
<path class="st10" d="M206-23h22v16h-22V-23z"/>
<path class="st1" d="M206-23v0.9l10.2,7.4h1.3v-0.9L207.3-23H206z M217.5-23v0.9l-10.2,7.4H206v-0.9l10.2-7.4H217.5z"/>
<path class="st1" d="M210.8-23v8.3h1.9V-23H210.8L210.8-23z M206-20.2v2.8h11.5v-2.8H206z"/>
<path class="st11" d="M206-19.7v1.7h11.5v-1.7H206z M211.2-23v8.3h1.2V-23H211.2L211.2-23z M206-14.7l3.8-2.8h0.9l-3.8,2.8H206z
	 M206-23l3.8,2.8H209l-3-2.2V-23z M212.8-20.2l3.8-2.8h0.9l-3.8,2.8H212.8z M217.5-14.7l-3.8-2.8h0.9l3,2.2L217.5-14.7L217.5-14.7z"
	/>
<g>
	<path class="st1" d="M216.6-10.3l-1.5,0.1l0.2,1.4l-1-1.1l-1,1.1l0.2-1.4l-1.5-0.1l1.3-0.7l-0.8-1.2l1.4,0.5l0.4-1.4l0.4,1.4
		l1.4-0.5l-0.8,1.2 M222.8-9l-0.4-0.5l0.6,0.2l0.2-0.6l0.2,0.6l0.6-0.2L223.7-9l0.5,0.3l-0.6,0.1l0.1,0.6l-0.4-0.5L222.8-8l0.1-0.6
		l-0.6-0.1 M222.8-18.4l-0.4-0.5l0.6,0.2l0.2-0.6l0.2,0.6l0.6-0.2l-0.4,0.5l0.5,0.3l-0.6,0.1l0.1,0.6l-0.4-0.5l-0.4,0.5l0.1-0.6
		l-0.6-0.1 M219.3-14.6l-0.4-0.5l0.6,0.2l0.2-0.6l0.2,0.6l0.6-0.2l-0.4,0.5l0.5,0.3l-0.6,0.1l0.1,0.6l-0.4-0.5l-0.4,0.5l0.1-0.6
		l-0.6-0.1 M225.9-15.5l-0.4-0.5l0.6,0.2l0.2-0.6l0.2,0.6l0.6-0.2l-0.4,0.5l0.5,0.3l-0.6,0.1l0.1,0.6l-0.4-0.5l-0.4,0.5l0.1-0.6
		l-0.6-0.1 M224.6-12.7l-0.3,0.2l0.1-0.4l-0.3-0.3l0.4,0l0.2-0.4l0.2,0.4l0.4,0l-0.3,0.3l0.1,0.4"/>
</g>
<path class="st12" d="M206-5h22v16h-22V-5z"/>
<g>
	<polygon class="st13" points="210.5,-1.7 210,-3.4 209.5,-1.7 207.7,-1.7 209.1,-0.7 208.6,0.9 210,-0.1 211.4,0.9 210.9,-0.7 
		212.3,-1.7 	"/>
	<polygon class="st13" points="213.9,-3.1 214.2,-2.6 214.2,-3.2 214.8,-3.3 214.3,-3.6 214.3,-4.1 213.9,-3.7 213.4,-3.9 
		213.7,-3.4 213.3,-3 	"/>
	<polygon class="st13" points="215.5,-1 215.7,-1.5 216.3,-1.4 215.9,-1.8 216.2,-2.4 215.7,-2.1 215.2,-2.5 215.3,-1.9 214.8,-1.7 
		215.4,-1.6 	"/>
	<polygon class="st13" points="215.9,0.7 216.4,0.3 215.8,0.3 215.6,-0.2 215.4,0.4 214.8,0.4 215.3,0.7 215.2,1.3 215.6,0.9 
		216.1,1.2 	"/>
	<polygon class="st13" points="214.3,2 214.3,1.5 213.9,1.9 213.4,1.7 213.7,2.2 213.3,2.6 213.9,2.5 214.2,3 214.2,2.4 214.8,2.2 	
		"/>
</g>
<path class="st14" d="M51.2,24.8l-1.5-1.5c0.5-0.8,0.8-1.7,0.8-2.8c0-2.8-2.2-5-5-5c-1,0-2,0.3-2.8,0.8c-0.6,0.4-1,0.9-1.4,1.4
	c-0.5,0.8-0.8,1.7-0.8,2.8c0,2.8,2.2,5,5,5c1,0,2-0.3,2.8-0.8l1.5,1.5c0.2,0.2,0.5,0.3,0.7,0.3s0.5-0.1,0.7-0.3
	C51.6,25.8,51.6,25.2,51.2,24.8z M45.5,23.5c-1.7,0-3-1.3-3-3c0-0.5,0.1-0.9,0.3-1.3c0.3-0.6,0.8-1.1,1.4-1.4
	c0.4-0.2,0.8-0.3,1.3-0.3c1.7,0,3,1.3,3,3c0,0.5-0.1,0.9-0.3,1.3c-0.3,0.6-0.8,1.1-1.4,1.4C46.4,23.4,46,23.5,45.5,23.5z"/>
<g>
	<path class="st15" d="M43.5-37c2.7,0,4.3,1.1,4.3,3c0,1.3-0.8,2.2-2,2.6c1.5,0.3,2.4,1.5,2.4,3c0,2-1.8,3.3-4.5,3.3h-5.8V-37H43.5z
		 M40.9-32.2h2.4c0.9,0,1.4-0.5,1.4-1.2c0-0.8-0.6-1.2-1.4-1.2h-2.4V-32.2z M40.9-27.5h2.4c1.1,0,1.8-0.5,1.8-1.3
		c0-0.8-0.7-1.3-1.8-1.3h-2.4V-27.5z"/>
	<path class="st15" d="M57.2-34.6v2.3h5.6v2.4h-5.6v2.4h6.4v2.4h-9.4V-37h9.3v2.4H57.2z"/>
	<path class="st15" d="M75.3-34.5v9.4h-3v-9.4h-3.5V-37h10.1v2.4H75.3z"/>
	<path class="st15" d="M89.8-34.5v9.4h-3v-9.4h-3.5V-37h10.1v2.4H89.8z"/>
	<path class="st15" d="M101.9-34.6v2.3h5.6v2.4h-5.6v2.4h6.4v2.4h-9.4V-37h9.3v2.4H101.9z"/>
	<path class="st15" d="M119.9-28.5L119.9-28.5h-2.4v3.3h-3V-37h5.3c3.1,0,4.9,1.5,4.9,4.1c0,1.8-0.8,3.1-2.1,3.8l2.5,3.9h-3.4
		L119.9-28.5z M119.8-30.8c1.3,0,2.1-0.7,2.1-1.9c0-1.2-0.8-1.9-2.1-1.9h-2.3v3.8H119.8z"/>
	<path class="st15" d="M140.1-25.1v-5.2H133v5.2h-1.4V-37h1.4v5.3h7.1V-37h1.4v11.8H140.1z"/>
	<path class="st15" d="M160.5-31.1c0,3.3-2.7,6-6.2,6c-3.5,0-6.2-2.7-6.2-6c0-3.3,2.7-5.9,6.2-5.9C157.8-37,160.5-34.4,160.5-31.1z
		 M149.5-31.1c0,2.6,2.2,4.7,4.8,4.7c2.6,0,4.8-2.1,4.8-4.7s-2.2-4.7-4.8-4.7C151.7-35.7,149.5-33.7,149.5-31.1z"/>
	<path class="st15" d="M170.7-35.7v10.5h-1.4v-10.5h-3.9V-37h9.1v1.3H170.7z"/>
	<path class="st15" d="M182.1-35.7v3.9h6v1.3h-6v4.1h6.9v1.3h-8.2V-37h8v1.3H182.1z"/>
	<path class="st15" d="M202.5-26.4v1.3H196V-37h1.4v10.5H202.5z"/>
	<path class="st15" d="M214.2-28.9c-0.3,0-0.5,0-0.8,0h-3.1v3.7h-1.4V-37h4.5c3,0,4.7,1.5,4.7,4c0,2-0.9,3.3-2.7,3.8l2.8,4h-1.5
		L214.2-28.9z M213.4-30.2c2.1,0,3.4-0.9,3.4-2.8c0-1.8-1.2-2.7-3.4-2.7h-3.1v5.5H213.4z"/>
	<path class="st15" d="M236.7-31.1c0,3.3-2.7,6-6.2,6c-3.5,0-6.2-2.7-6.2-6c0-3.3,2.7-5.9,6.2-5.9C233.9-37,236.7-34.4,236.7-31.1z
		 M225.6-31.1c0,2.6,2.2,4.7,4.8,4.7c2.6,0,4.8-2.1,4.8-4.7s-2.2-4.7-4.8-4.7C227.8-35.7,225.6-33.7,225.6-31.1z"/>
	<path class="st15" d="M254.3-31.1c0,3.3-2.7,6-6.2,6c-3.5,0-6.2-2.7-6.2-6c0-3.3,2.7-5.9,6.2-5.9C251.6-37,254.3-34.4,254.3-31.1z
		 M243.3-31.1c0,2.6,2.2,4.7,4.8,4.7c2.6,0,4.8-2.1,4.8-4.7s-2.2-4.7-4.8-4.7C245.5-35.7,243.3-33.7,243.3-31.1z"/>
	<path class="st15" d="M271.7-25.1l0-9.8l-4.3,8.5h-0.8l-4.3-8.5v9.8H261V-37h1.7l4.3,8.5l4.3-8.5h1.7v11.8H271.7z"/>
	<path class="st15" d="M281.5-25.9c0,0.5-0.4,0.9-0.8,0.9c-0.5,0-0.8-0.4-0.8-0.9c0-0.5,0.4-0.9,0.8-0.9
		C281.2-26.8,281.5-26.4,281.5-25.9z"/>
	<path class="st15" d="M297.8-35.3l-0.8,1c-0.9-0.9-2.2-1.5-3.5-1.5c-2.7,0-4.8,2.1-4.8,4.7c0,2.6,2.1,4.7,4.8,4.7
		c1.3,0,2.6-0.5,3.5-1.4l0.8,0.9c-1.2,1.1-2.8,1.8-4.4,1.8c-3.4,0-6.1-2.7-6.1-6c0-3.3,2.7-5.9,6.2-5.9
		C295.1-37,296.7-36.3,297.8-35.3z"/>
	<path class="st15" d="M315.5-31.1c0,3.3-2.7,6-6.2,6c-3.5,0-6.2-2.7-6.2-6c0-3.3,2.7-5.9,6.2-5.9C312.7-37,315.5-34.4,315.5-31.1z
		 M304.4-31.1c0,2.6,2.2,4.7,4.8,4.7c2.6,0,4.8-2.1,4.8-4.7s-2.2-4.7-4.8-4.7C306.6-35.7,304.4-33.7,304.4-31.1z"/>
	<path class="st15" d="M332.9-25.1l0-9.8l-4.3,8.5h-0.8l-4.3-8.5v9.8h-1.3V-37h1.7l4.3,8.5l4.3-8.5h1.7v11.8H332.9z"/>
</g>
</svg>
