<?xml version="1.0" encoding="utf-8"?>
<!-- Generator: Adobe Illustrator 19.1.1, SVG Export Plug-In . SVG Version: 6.00 Build 0)  -->
<svg version="1.1" id="Layer_1" xmlns="http://www.w3.org/2000/svg" xmlns:xlink="http://www.w3.org/1999/xlink" x="0px" y="0px"
	 viewBox="0 0 32.8 32" style="enable-background:new 0 0 32.8 32;" xml:space="preserve">
<style type="text/css">
	.st0{fill:#FFFFFF;}
</style>
<path class="st0" d="M31.1,30.3v-1.7h-3.2V18h3.6v-2.2h-1.4l0.3,0v-1L16.8,4.6v-2h1.3h1.3l-1.3,1h2.6v-2h-1.3v-1h-2.6V0h-0.6v4.4
	L2.4,14.7v1l0.3,0H1.3V18h3.6v10.6H1.6v1.7H0V32h32.8v-1.7H31.1z M16.4,8.8c1.2,0,2.2,1,2.2,2.2c0,1.2-1,2.2-2.2,2.2
	c-1.2,0-2.2-1-2.2-2.2C14.2,9.8,15.2,8.8,16.4,8.8z M11.7,28.5H7.3V18h4.5V28.5z M18.6,28.5h-4.5V18h0h2.2h2.2V28.5z M25.5,28.5H21
	V18h4.5V28.5z"/>
</svg>
